<svg xmlns="http://www.w3.org/2000/svg" width="256" height="256" viewBox="0 0 100 100"><rect width="100" height="100" rx="20" fill="#7d6ee7"></rect><path fill="#fff" d="M40.28 23.54L39.92 45.14Q46.94 46.31 52.79 46.31Q58.64 46.31 60.26 46.22L60.26 46.22Q60.08 39.38 60.08 33.08Q60.08 26.78 60.08 24.53Q60.08 22.28 60.26 21.70Q60.44 21.11 61.43 20.57Q62.42 20.03 64.31 20.03L64.31 20.03Q67.01 20.03 67.01 23.27L67.01 23.27L67.01 55.13Q67.01 65.03 66.56 76.91L66.56 76.91Q66.47 79.52 62.15 79.52L62.15 79.52Q59.99 79.52 59.99 76.91L59.99 76.91L60.35 53.06Q57.47 53.24 52.48 53.24Q47.48 53.24 39.92 52.16L39.92 52.16Q39.92 64.04 41 77L41 77Q41.09 78.44 39.74 79.20Q38.39 79.97 36.37 79.97Q34.34 79.97 34.16 77.90L34.16 77.90Q32.99 65.12 32.99 52.70L32.99 52.70L33.53 24.62Q33.53 22.82 34.88 21.97Q36.23 21.11 37.76 21.11L37.76 21.11Q40.28 21.11 40.28 23.54L40.28 23.54Z"></path></svg>